# AST/ASF file generated using VICON BodyLanguage
# -----------------------------------------------
:version 1.10
:name VICON
:units
  mass 1.0
  length 0.45
  angle deg
:documentation
   .ast/.asf automatically generated from VICON data using
   VICON BodyBuilder and BodyLanguage model FoxedUp or BRILLIANT.MOD
:root
   order TX TY TZ RX RY RZ
   axis XYZ
   position 0 0 0  
   orientation 0 0 0 
:bonedata
  begin
     id 1 
     name lhipjoint
     direction 0.575328 -0.747301 0.332475 
     length 2.40933 
     axis 0 0 0  XYZ
  end
  begin
     id 2 
     name lfemur
     direction 0.34202 -0.939693 0  
     length 7.31453  
     axis 0 0 20  XYZ
    dof rx ry rz
    limits (-160.0 20.0)
           (-70.0 70.0)
           (-60.0 70.0)
  end
  begin
     id 3 
     name ltibia
     direction 0.34202 -0.939693 0   
     length 7.82185   
     axis 0 0 20   XYZ
    dof rx
    limits (-10.0 170.0)
  end
  begin
     id 4 
     name lfoot
     direction 0.0795993 -0.218697 0.972541   
     length 2.19173   
     axis -90 7.62852e-016 20   XYZ
    dof rx rz
    limits (-45.0 90.0)
           (-70.0 20.0)
  end
  begin
     id 5 
     name ltoes
     direction 1.53537e-011 -4.21894e-011 1   
     length 1.10023   
     axis -90 7.62852e-016 20   XYZ
    dof rx
    limits (-90.0 20.0)
  end
  begin
     id 6 
     name rhipjoint
     direction -0.513884 -0.783789 0.348708   
     length 2.29716  
     axis 0 0 0  XYZ 
  end
  begin
     id 7 
     name rfemur
     direction -0.34202 -0.939693 0   
     length 7.59573   
     axis 0 0 -20   XYZ
    dof rx ry rz
    limits (-160.0 20.0)
           (-70.0 70.0)
           (-70.0 60.0)
  end
  begin
     id 8 
     name rtibia
     direction -0.34202 -0.939693 0   
     length 7.66402   
     axis 0 0 -20   XYZ
    dof rx
    limits (-10.0 170.0)
 end
 begin
     id 9 
     name rfoot
     direction -0.137793 -0.378584 0.915253   
     length 2.27056  
     axis -90 -7.62852e-016 -20   XYZ
    dof rx rz
    limits (-45.0 90.0)
           (-20.0 70.0)
  end
  begin
     id 10 
     name rtoes
     direction -1.53493e-011 -4.22159e-011 1   
     length 1.11766   
     axis -90 -7.62852e-016 -20   XYZ
    dof rx
    limits (-90.0 20.0)
  end
  begin
     id 11 
     name lowerback
     direction -0.00732775 0.998356 -0.05685   
     length 2.16513   
     axis 0 0 0   XYZ
    dof rx ry rz
    limits (-20.0 45.0)
           (-30.0 30.0)
           (-30.0 30.0)
  end
  begin
     id 12 
     name upperback
     direction 0.0218081 0.999627 -0.0164647   
     length 2.16755   
     axis 0 0 0   XYZ
    dof rx ry rz
    limits (-20.0 45.0)
           (-30.0 30.0)
           (-30.0 30.0)
  end
  begin
     id 13 
     name thorax
     direction 0.02365 0.999661 0.0108914   
     length 2.16932   
     axis 0 0 0   XYZ
    dof rx ry rz
    limits (-20.0 45.0)
           (-30.0 30.0)
           (-30.0 30.0)
  end
  begin
     id 14 
     name lowerneck
     direction -0.0523929 0.978385 0.200044   
     length 1.63877   
     axis 0 0 0   XYZ
    dof rx ry rz
    limits (-20.0 45.0)
           (-30.0 30.0)
           (-30.0 30.0)
  end
  begin
     id 15 
     name upperneck
     direction 0.0448674 0.981321 -0.187074   
     length 1.69014   
     axis 0 0 0   XYZ
    dof rx ry rz
    limits (-20.0 45.0)
           (-30.0 30.0)
           (-30.0 30.0)
  end
  begin
     id 16
     name head
     direction 0.0199089 0.996118 -0.0857429  
     length 1.70094  
     axis 0 0 0   XYZ
    dof rx ry rz
    limits (-20.0 45.0)
           (-30.0 30.0)
           (-30.0 30.0)
  end
  begin
     id 17 
     name lclavicle
     direction 0.940366 0.30191 -0.156722  
     length 3.37521  
     axis 0 0 0   XYZ
    dof ry rz
    limits (-20.0 10.0)
           (0.0 20.0)
  end
  begin
     id 18 
     name lhumerus
     direction 1 -4.4897e-011 -1.7911e-027   
     length 5.25287   
     axis 180 -30 -90   XYZ
    dof rx ry rz
    limits (-60.0 90.0)
           (-90.0 90.0)
           (-90.0 90.0)
  end
  begin
     id 19
     name lradius
     direction 1 -4.48951e-011 1.04424e-027   
     length 3.51014   
     axis 180 -30 -90   XYZ
    dof rx
    limits (-10.0 170.0)
  end
  begin
     id 20
     name lwrist
     direction 1 -4.48997e-011 -9.5942e-028   
     length 1.75507   
     axis 8.48502e-016 90 90   XYZ
    dof ry
    limits (-180.0 0.0)
 end
  begin
     id 21 
     name lhand
     direction 1 -4.48831e-011 -1.90777e-027   
     length 0.706179   
     axis 1.22306e-015 90 90   XYZ
    dof rx rz
    limits (-90.0 90.0)
           (-45.0 45.0)
  end
  begin
     id 22 
     name lfingers
     direction 1 -4.49108e-011 -3.85244e-027   
     length 0.569339   
     axis 2.44611e-015 90 90   XYZ
    dof rx
    limits (0.0 90.0)
  end
  begin
     id 23
     name lthumb
     direction 0.707107 -6.34953e-011 0.707107   
     length 0.817461   
     axis -90 45 -1.62303e-014   XYZ
    dof rx rz
    limits (-45.0 45.0)
           (-45.0 45.0)
  end
  begin
     id 24 
     name rclavicle
     direction -0.905329 0.382405 -0.184787   
     length 3.30787  
     axis 0 0 0   XYZ 
    dof ry rz
    limits (-10.0 20.0)
           (-20.0 0.0)
  end
  begin
     id 25 
     name rhumerus
     direction -1 -4.48953e-011 -9.15316e-029  
     length 5.28721   
     axis 180 30 90   XYZ
    dof rx ry rz
    limits (-90.0 60.0)
           (-90.0 90.0)
           (-90.0 90.0)
  end
  begin
     id 26 
     name rradius
     direction -1 -4.48987e-011 9.37824e-028   
     length 3.50544   
     axis 180 30 90   XYZ
    dof rx
    limits (-10.0 170.0)
  end
  begin
     id 27 
     name rwrist
     direction -1 -4.48967e-011 -9.58414e-028   
     length 1.75272   
     axis 8.48502e-016 -90 -90   XYZ
    dof ry
    limits (-180.0 0.0)
  end
  begin
     id 28
     name rhand
     direction -1 -4.48904e-011 -1.91266e-027   
     length 0.884996   
     axis 1.22306e-015 -90 -90   XYZ
    dof rx rz
    limits (-90.0 90.0)
           (-45.0 45.0)
  end
  begin
     id 29
     name rfingers
     direction -1 -4.4909e-011 -3.85015e-027   
     length 0.713507   
     axis 2.44611e-015 -90 -90   XYZ
    dof rx
    limits (0.0 90.0)
  end
  begin
     id 30
     name rthumb
     direction -0.707107 -6.34853e-011 0.707107   
     length 1.02446   
     axis -90 -45 1.62303e-014   XYZ
    dof rx rz
    limits (-45.0 45.0)
           (-45.0 45.0)
  end
:hierarchy
  begin
    root lhipjoint rhipjoint lowerback
    lhipjoint lfemur
    lfemur ltibia
    ltibia lfoot
    lfoot ltoes
    rhipjoint rfemur
    rfemur rtibia
    rtibia rfoot
    rfoot rtoes
    lowerback upperback
    upperback thorax
    thorax lowerneck lclavicle rclavicle
    lowerneck upperneck
    upperneck head
    lclavicle lhumerus
    lhumerus lradius
    lradius lwrist
    lwrist lhand lthumb
    lhand lfingers
    rclavicle rhumerus
    rhumerus rradius
    rradius rwrist
    rwrist rhand rthumb
    rhand rfingers
  end

#!OML:ASF F:\twosubjects\two\Thursday\Session 1\justin.ASF
:FULLY-SPECIFIED
:DEGREES
1
root -10.9235 17.0616 -3.40909 7.68731 21.9346 7.9935
lowerback 0.565229 -3.75549 -5.91623
upperback -4.79718 -5.00441 5.15127
thorax -4.36309 -2.15518 8.95178
lowerneck -2.88847 2.18847 -8.02069
upperneck -11.3977 4.6177 17.1516
head -3.39309 2.05787 6.56474
rclavicle 3.60794e-014 -7.95139e-015
rhumerus 68.8607 15.3845 -80.5009
rradius 52.8873
rwrist -31.0341
rhand -37.1782 22.0621
rfingers 7.12502
rthumb -10.2466 -7.66831
lclavicle 3.60794e-014 -7.95139e-015
lhumerus 65.493 -12.7007 95.368
lradius 50.2796
lwrist 65.0101
lhand -4.85853 53.7455
lfingers 7.12502
lthumb 20.9293 82.6364
rfemur -42.2214 -11.1546 12
rtibia 33.0329
rfoot -4.29583 -17.0113
rtoes -12.8594
lfemur 14.5166 -1.24063 -25.9297
ltibia 11.3999
lfoot -14.8 -9.76219
ltoes -22.9051
2
root -10.8907 17.0666 -3.20844 7.25601 21.2921 7.53144
lowerback 0.749192 -3.75806 -5.23237
upperback -4.62494 -4.98304 5.36189
thorax -4.32239 -2.17401 8.79019
lowerneck -3.59846 2.08809 -8.20357
upperneck -10.5086 4.40139 17.3165
head -2.98732 2.01269 6.65598
rclavicle -1.39149e-014 3.81667e-014
rhumerus 68.0692 15.692 -80.5632
rradius 52.5502
rwrist -29.709
rhand -36.1527 22.8616
rfingers 7.12502
rthumb -9.25711 -6.91522
lclavicle -1.39149e-014 3.81667e-014
lhumerus 64.4768 -12.4301 96.029
lradius 50.3732
lwrist 65.661
lhand -4.66036 53.7903
lfingers 7.12502
lthumb 21.1197 82.6601
rfemur -41.9032 -9.9471 11.8684
rtibia 33.132
rfoot -0.0168143 -15.7628
rtoes -5.49499
lfemur 13.9887 -1.28837 -25.5109
ltibia 14.1012
lfoot -14.418 -9.77173
ltoes -24.6835
3
root -10.8538 17.066 -3.01035 7.05419 20.4551 7.10147
lowerback 0.609765 -3.72323 -4.53534
upperback -4.40032 -4.90318 5.54644
thorax -4.05715 -2.17494 8.56069
lowerneck -4.61381 1.96232 -8.19615
upperneck -9.44009 4.12399 17.3147
head -2.46581 1.95436 6.66392
rclavicle -2.57426e-014 2.54444e-014
rhumerus 67.2672 16.0318 -80.3712
rradius 52.4821
rwrist -28.4273
rhand -35.4447 23.6008
rfingers 7.12502
rthumb -8.57399 -6.20514
lclavicle -2.57426e-014 2.54444e-014
lhumerus 63.5763 -12.2147 96.5823
lradius 50.7548
lwrist 66.0801
lhand -4.71404 53.7853
lfingers 7.12502
lthumb 21.0681 82.6608
rfemur -41.9096 -8.97217 11.9765
rtibia 33.3737
rfoot 2.66677 -14.2873
rtoes 0.539951
lfemur 12.471 -1.20174 -25.1568
ltibia 18.2208
lfoot -14.3264 -9.85818
ltoes -24.7201
4
root -10.8198 17.0611 -2.81978 6.97832 19.6129 6.60642
lowerback 0.505219 -3.69816 -3.78643
upperback -4.30512 -4.8357 5.76308
thorax -3.9478 -2.17046 8.3478
lowerneck -4.99495 1.94734 -8.07542
upperneck -8.77692 4.01547 17.2078
head -2.19168 1.93564 6.60984
rclavicle -1.09332e-015 -1.27222e-014
rhumerus 66.1194 16.5157 -80.394
rradius 52.5204
rwrist -27.0873
rhand -34.9043 23.6411
rfingers 7.12502
rthumb -8.05237 -6.18553
lclavicle -1.09332e-015 -1.27222e-014
lhumerus 62.4189 -11.9438 96.94
lradius 51.4156
lwrist 66.3547
lhand -4.52893 54.2187
lfingers 7.12502
lthumb 21.246 83.0743
rfemur -42.2641 -8.79757 12.7807
rtibia 34.0959
rfoot 3.61128 -13.0089
rtoes -0.619979
lfemur 11.0238 -1.09445 -24.7307
ltibia 21.7585
lfoot -13.5896 -10.5695
ltoes -23.918
5
root -10.788 17.0385 -2.63965 6.85941 18.7319 6.34076
lowerback 0.627886 -3.66004 -3.33221
upperback -4.18966 -4.76587 5.9855
thorax -3.92413 -2.15091 8.3289
lowerneck -5.34249 1.93789 -8.22002
upperneck -8.15976 3.93862 17.236
head -1.9472 1.93498 6.64667
rclavicle -7.52897e-014 -9.54166e-015
rhumerus 64.9094 17.1173 -80.4663
rradius 52.6107
rwrist -25.6523
rhand -34.3436 23.8663
rfingers 7.12502
rthumb -7.51123 -5.98037
lclavicle -7.52897e-014 -9.54166e-015
lhumerus 61.0897 -11.5748 97.4517
lradius 52.141
lwrist 66.2291
lhand -3.63578 54.7095
lfingers 7.12502
lthumb 22.1037 83.4661
rfemur -42.6007 -9.40691 13.9874
rtibia 35.2352
rfoot 3.60614 -11.0596
rtoes -9.49244
lfemur 9.56497 -0.798441 -24.5211
ltibia 25.4155
lfoot -12.3756 -11.3137
ltoes -23.218
6
root -10.7549 17.02 -2.46816 6.50432 17.7046 6.06096
lowerback 1.05463 -3.5447 -2.85134
upperback -4.08108 -4.59293 6.14578
thorax -4.10381 -2.07321 8.25113
lowerneck -5.74027 1.89879 -8.22522
upperneck -7.24994 3.78125 17.2694
head -1.59736 1.90202 6.66147
rclavicle 8.15017e-015 -2.22639e-014
rhumerus 63.5801 17.7267 -80.1006
rradius 53.1939
rwrist -24.395
rhand -33.903 23.8952
rfingers 7.12502
rthumb -7.08592 -5.96616
lclavicle 8.15017e-015 -2.22639e-014
lhumerus 59.4817 -11.4207 98.0123
lradius 52.9865
lwrist 65.6737
lhand -3.14081 54.5192
lfingers 7.12502
lthumb 22.5788 83.2188
rfemur -42.7816 -9.72281 15.1667
rtibia 36.7481
rfoot 2.71835 -9.21418
rtoes -16.1521
lfemur 8.29816 -0.244823 -24.308
ltibia 29.0091
lfoot -10.8003 -11.8226
ltoes -22.9288
7
root -10.7247 17.0334 -2.29903 6.02016 16.6391 5.34496
lowerback 1.57106 -3.44253 -2.06972
upperback -3.97824 -4.41369 6.42094
thorax -4.35352 -1.99819 8.13038
lowerneck -5.11857 2.03776 -7.7102
upperneck -7.31045 3.90577 16.8708
head -1.72413 1.92399 6.43127
rclavicle 1.58034e-014 9.54166e-015
rhumerus 62.1942 18.4229 -79.8124
rradius 53.8841
rwrist -23.1624
rhand -33.2582 24.215
rfingers 7.12502
rthumb -6.46344 -5.66637
lclavicle 1.58034e-014 9.54166e-015
lhumerus 57.8466 -11.4017 98.5661
lradius 53.7084
lwrist 64.4049
lhand -2.74558 53.7386
lfingers 7.12502
lthumb 22.9581 82.3916
rfemur -42.9883 -9.41289 16.3414
rtibia 38.4416
rfoot 1.3275 -8.62548
rtoes -16.816
lfemur 7.05588 0.215064 -23.6352
ltibia 32.4196
lfoot -8.81067 -12.108
ltoes -22.0447
8
root -10.6993 17.0491 -2.12983 5.59201 15.5874 4.72454
lowerback 1.95355 -3.33387 -1.48671
upperback -3.58887 -4.24304 6.66402
thorax -4.2111 -1.94083 8.05873
lowerneck -4.79904 2.13534 -7.18729
upperneck -7.76067 4.04284 16.5161
head -1.91301 1.95264 6.22136
rclavicle 7.92343e-014 -4.13472e-014
rhumerus 61.125 18.8924 -79.9911
rradius 54.1391
rwrist -21.5785
rhand -32.6515 24.8731
rfingers 7.12502
rthumb -5.87772 -5.02533
lclavicle 7.92343e-014 -4.13472e-014
lhumerus 56.7158 -11.5327 99.0724
lradius 54.2924
lwrist 62.9802
lhand -1.73872 52.9988
lfingers 7.12502
lthumb 23.924 81.5285
rfemur -43.0852 -9.22732 17.2977
rtibia 39.9924
rfoot -0.234873 -8.15008
rtoes -16.3042
lfemur 5.89693 0.618797 -23.0096
ltibia 35.6099
lfoot -6.84923 -12.2915
ltoes -22.2691
9
root -10.6735 17.042 -1.96399 5.3194 14.6426 4.59994
lowerback 2.31581 -3.16722 -1.24691
upperback -3.19033 -4.0198 6.65766
thorax -4.04777 -1.84971 7.90923
lowerneck -4.66627 2.05449 -6.82484
upperneck -8.12244 3.95981 16.4775
head -2.02318 1.88319 6.14666
rclavicle -1.27222e-014 1.27222e-014
rhumerus 59.6893 18.9924 -80.4094
rradius 54.4442
rwrist -19.8984
rhand -32.0514 25.308
rfingers 7.12502
rthumb -5.29835 -4.60577
lclavicle -1.27222e-014 1.27222e-014
lhumerus 55.5714 -12.0616 99.2284
lradius 54.9883
lwrist 62.1342
lhand -0.721781 53.1432
lfingers 7.12502
lthumb 24.8989 81.5415
rfemur -43.0677 -9.45885 17.8098
rtibia 41.2526
rfoot -1.75944 -7.27399
rtoes -16.6591
lfemur 4.79942 0.948083 -22.9025
ltibia 38.6118
lfoot -5.37723 -12.6539
ltoes -23.3205
